<svg version="1.1" xmlns="http://www.w3.org/2000/svg" viewBox="0 0 1226 841" width="1226" height="841">
  <!-- svg-source:excalidraw -->
  
  <defs>
    <style class="style-fonts">
      @font-face {
        font-family: "Virgil";
        src: url("https://excalidraw.com/Virgil.woff2");
      }
      @font-face {
        font-family: "Cascadia";
        src: url("https://excalidraw.com/Cascadia.woff2");
      }
    </style>
  </defs>
  <rect x="0" y="0" width="1226" height="841" fill="#ffffff"></rect><g stroke-linecap="round" transform="translate(672 10) rotate(0 73 41.5)"><path d="M87.4 0.44 C98.16 1.08, 109.8 5.01, 118.53 9.15 C127.27 13.3, 135.42 19.49, 139.82 25.33 C144.21 31.17, 145.66 37.89, 144.9 44.19 C144.13 50.49, 140.88 57.56, 135.22 63.14 C129.57 68.72, 120.83 74.48, 110.96 77.66 C101.09 80.84, 87.28 81.84, 76 82.22 C64.72 82.6, 53.51 82.51, 43.27 79.92 C33.04 77.34, 21.56 72.02, 14.57 66.71 C7.58 61.4, 3.3 54.47, 1.34 48.06 C-0.61 41.65, -0.6 34.21, 2.85 28.25 C6.3 22.29, 13.97 16.87, 22.04 12.31 C30.1 7.75, 38.44 2.6, 51.25 0.88 C64.05 -0.84, 89.4 1.05, 98.89 2 C108.39 2.95, 108.93 5.92, 108.21 6.58 M57.22 1.2 C67.43 -1.03, 80.34 -1.38, 91.23 0.18 C102.13 1.74, 114.31 5.91, 122.57 10.56 C130.82 15.21, 137.08 22.03, 140.76 28.08 C144.44 34.14, 146.24 40.35, 144.65 46.88 C143.05 53.41, 137.63 62.05, 131.2 67.24 C124.77 72.44, 116.15 75.49, 106.07 78.05 C95.99 80.61, 82.17 82.66, 70.72 82.61 C59.27 82.56, 47.14 80.86, 37.37 77.73 C27.61 74.6, 18.27 69.45, 12.11 63.83 C5.95 58.21, 1.48 50.6, 0.43 44.02 C-0.63 37.43, 1.29 30.14, 5.77 24.31 C10.25 18.47, 18.77 12.96, 27.32 8.99 C35.88 5.03, 52.19 1.82, 57.11 0.53 C62.04 -0.77, 56.42 0.74, 56.86 1.24" stroke="#000000" stroke-width="1" fill="none"></path></g><g stroke-linecap="round"><g transform="translate(743 95) rotate(0 -0.28326912310069474 40.80153797534295)"><path d="M0.14 0.25 C0.14 13.96, 0.48 68.62, 0.73 82.27 M-1.25 -0.67 C-1.49 12.67, -0.77 66.26, -0.36 80.29" stroke="#000000" stroke-width="1" fill="none"></path></g><g transform="translate(743 95) rotate(0 -0.28326912310069474 40.80153797534295)"><path d="M-10.76 51.85 C-6.86 63.39, -3.19 72.53, 0 79.84 M-11.79 52.04 C-7.01 62.27, -3.53 71.85, 0.2 79.4" stroke="#000000" stroke-width="1" fill="none"></path></g><g transform="translate(743 95) rotate(0 -0.28326912310069474 40.80153797534295)"><path d="M9.75 51.45 C6.31 63.15, 2.62 72.44, 0 79.84 M8.73 51.63 C6.34 61.91, 2.66 71.64, 0.2 79.4" stroke="#000000" stroke-width="1" fill="none"></path></g></g><g stroke-linecap="round" transform="translate(665 180) rotate(0 77.5 83)"><path d="M76.32 -0.66 C93.71 14.95, 108.33 31.34, 155.27 84.51 M78.44 -0.3 C98.16 22.17, 117.73 44.01, 154.25 83.64 M156.45 84.21 C124.84 115.7, 100.28 143.44, 79.97 164.23 M155.89 83.13 C138.88 100.59, 122.91 118.88, 78.75 165.47 M79.91 167.28 C56.89 142.6, 32.78 120.08, 0.46 85.77 M78.4 165.64 C59.68 145.79, 40.84 125.59, 0.09 83.78 M0.95 84.39 C29.2 52.4, 57.64 19.03, 79.37 1.96 M0.16 84.75 C19.09 65.34, 36.38 44.49, 77.24 0.37" stroke="#000000" stroke-width="1" fill="none"></path></g><g transform="translate(674 250.5) rotate(0 68.5 12.5)"><text x="68.5" y="18" font-family="Virgil, Segoe UI Emoji" font-size="20px" fill="#000000" text-anchor="middle" style="white-space: pre;" direction="ltr">tags is empty</text></g><g stroke-linecap="round"><g transform="translate(819.6155023250435 264.87703950068527) rotate(0 60.09052209596689 0.7657491346083134)"><path d="M1.2 -0.04 C20.79 0.29, 97.88 2.31, 117.54 2.64 M0.36 -1.11 C20.33 -1.2, 100.07 0.03, 119.82 0.74" stroke="#2b8a3e" stroke-width="1" fill="none"></path></g><g transform="translate(819.6155023250435 264.87703950068527) rotate(0 60.09052209596689 0.7657491346083134)"><path d="M91.32 8.93 C100.55 8.51, 107.92 5.34, 120.96 2.44 M91.49 9.6 C102.68 5.8, 113.05 3.77, 120.49 -0.24" stroke="#2b8a3e" stroke-width="1" fill="none"></path></g><g transform="translate(819.6155023250435 264.87703950068527) rotate(0 60.09052209596689 0.7657491346083134)"><path d="M91.81 -11.59 C101.01 -5.85, 108.23 -2.86, 120.96 2.44 M91.98 -10.92 C102.99 -6.55, 113.17 -0.41, 120.49 -0.24" stroke="#2b8a3e" stroke-width="1" fill="none"></path></g></g><g stroke-linecap="round" transform="translate(934 206) rotate(0 141 63.5)"><path d="M-0.5 -1.45 C104.93 0.05, 209.05 -0.6, 283.18 -0.89 M-0.11 0.69 C82.54 2.46, 165.02 2.63, 282.58 -0.32 M281.45 1.68 C278.83 36.66, 279.51 71.5, 280.14 125.47 M281.85 0.9 C281.86 42.19, 283.17 82.33, 282.37 126.19 M282.21 127.69 C205.19 126.83, 128.49 126.44, -1.16 126.75 M281.27 127.14 C171.8 126.07, 62.66 126.07, 0.28 127.05 M-0.42 127.31 C1.69 93.93, 1.01 57.3, -0.64 1.05 M-0.47 127.6 C0.59 83.53, 0.75 39.7, 0.09 0.54" stroke="#000000" stroke-width="1" fill="none"></path></g><g transform="translate(951 257) rotate(0 108 12.5)"><text x="0" y="18" font-family="Virgil, Segoe UI Emoji" font-size="20px" fill="#000000" text-anchor="start" style="white-space: pre;" direction="ltr">add the first element</text></g><g stroke-linecap="round"><g transform="translate(663.4022931562488 266.53887468946675) rotate(0 -54.0106355472397 1.0559735204611513)"><path d="M0.43 0.88 C-17.51 1.22, -89.51 2, -107.55 1.9 M-0.8 0.29 C-18.9 0.32, -90.47 0.11, -108.45 0.26" stroke="#c92a2a" stroke-width="1" fill="none"></path></g><g transform="translate(663.4022931562488 266.53887468946675) rotate(0 -54.0106355472397 1.0559735204611513)"><path d="M-78.82 -9.92 C-87.47 -7.1, -98.95 -4.5, -109.41 0.1 M-79.77 -10.87 C-86.94 -7.21, -94.96 -4.19, -107.88 -0.25" stroke="#c92a2a" stroke-width="1" fill="none"></path></g><g transform="translate(663.4022931562488 266.53887468946675) rotate(0 -54.0106355472397 1.0559735204611513)"><path d="M-78.78 10.6 C-87.42 7.08, -98.91 3.34, -109.41 0.1 M-79.73 9.65 C-86.74 7.93, -94.77 5.56, -107.88 -0.25" stroke="#c92a2a" stroke-width="1" fill="none"></path></g></g><g transform="translate(716.5 39) rotate(0 28.5 12.5)"><text x="28.5" y="18" font-family="Virgil, Segoe UI Emoji" font-size="20px" fill="#1864ab" text-anchor="middle" style="white-space: pre;" direction="ltr">start</text></g><g stroke-linecap="round" transform="translate(382 182) rotate(0 86.5 84)"><path d="M85.15 0.72 C109.7 22.03, 132.96 46.12, 173.26 84.99 M87.34 0.64 C111.18 21.79, 133.08 44.31, 172.82 85.74 M171.86 83.36 C142.59 112.53, 110.41 141.72, 86.85 167.76 M173.84 84.55 C137.84 116.5, 103.02 149.73, 86.22 167.31 M86.23 169.28 C60.64 145.18, 35.8 120.29, 0.27 86.91 M86.81 167.01 C68.86 151.42, 49.89 133.08, -0.56 85.88 M1.05 84.23 C34.57 52.17, 64.64 22.2, 88.38 -1.47 M0.48 84.5 C27.81 56.93, 56.08 30.03, 87.19 -0.96" stroke="#000000" stroke-width="1" fill="none"></path></g><g transform="translate(405 250) rotate(0 66 12.5)"><text x="0" y="18" font-family="Virgil, Segoe UI Emoji" font-size="20px" fill="#000000" text-anchor="start" style="white-space: pre;" direction="ltr">empty tagId?</text></g><g stroke-linecap="round"><g transform="translate(469 349) rotate(0 0.6051093595037287 66.83767165061087)"><path d="M0.78 -0.25 C0.84 21.9, 1.39 111.29, 1.53 133.72 M-0.26 -1.43 C-0.51 20.82, 0.18 112.84, 0.33 135.11" stroke="#2b8a3e" stroke-width="1" fill="none"></path></g><g transform="translate(469 349) rotate(0 0.6051093595037287 66.83767165061087)"><path d="M-10.55 106.2 C-6.24 117.44, -1.05 131.18, -0.52 133.9 M-10.66 106.92 C-6.16 116, -3.06 125.28, 0.75 135.35" stroke="#2b8a3e" stroke-width="1" fill="none"></path></g><g transform="translate(469 349) rotate(0 0.6051093595037287 66.83767165061087)"><path d="M9.97 106.06 C6.12 117.49, 3.15 131.29, -0.52 133.9 M9.87 106.78 C7.5 116.04, 3.74 125.38, 0.75 135.35" stroke="#2b8a3e" stroke-width="1" fill="none"></path></g></g><g stroke-linecap="round" transform="translate(265 489) rotate(0 205.5 52)"><path d="M0.76 -0.58 C119.48 0.29, 236.77 1.44, 410.65 0.7 M0.42 -0.15 C83.77 -1.89, 167.14 -1.86, 410.91 0.36 M411.76 -1.13 C409.42 27.72, 409.94 54.23, 409.84 105.41 M411.68 -0.7 C410.96 33.14, 412.09 67.3, 411.06 103.2 M411.67 103 C297.61 103.69, 182.41 103.53, 1.01 103.52 M411.31 103.54 C290.22 104.15, 168.06 104.73, -0.26 104.33 M-0.56 102.69 C-0.54 81.4, -0.7 61.91, -0.06 0.47 M-0.45 104.52 C-0.35 77.3, -0.92 48.62, -0.3 0.45" stroke="#000000" stroke-width="1" fill="none"></path></g><g transform="translate(323 529) rotate(0 145 12.5)"><text x="0" y="18" font-family="Virgil, Segoe UI Emoji" font-size="20px" fill="#000000" text-anchor="start" style="white-space: pre;" direction="ltr">update latest element in list</text></g><g stroke-linecap="round"><g transform="translate(378 266) rotate(0 -53.232044628635066 -0.2932941749505744)"><path d="M0.49 0.83 C-17.53 0.65, -89.02 0.55, -106.95 0.12 M-0.71 0.21 C-18.46 0.24, -87.4 -1.24, -104.74 -1.41" stroke="#c92a2a" stroke-width="1" fill="none"></path></g><g transform="translate(378 266) rotate(0 -53.232044628635066 -0.2932941749505744)"><path d="M-75.01 -12.81 C-85.62 -9.05, -99.91 -1.41, -104.95 -2.34 M-75.6 -10.69 C-81.99 -9.48, -90.57 -5.81, -104.25 -1.98" stroke="#c92a2a" stroke-width="1" fill="none"></path></g><g transform="translate(378 266) rotate(0 -53.232044628635066 -0.2932941749505744)"><path d="M-75.34 7.71 C-86.02 3.36, -100.18 2.9, -104.95 -2.34 M-75.93 9.83 C-82.41 6.21, -90.91 5.05, -104.25 -1.98" stroke="#c92a2a" stroke-width="1" fill="none"></path></g></g><g stroke-linecap="round" transform="translate(10 218) rotate(0 124 51.5)"><path d="M-1.18 0.93 C58.24 0.2, 113.55 -0.99, 246.58 -0.19 M0.43 0.78 C57.98 -0.65, 116.55 -1.76, 248.68 0.43 M247.67 -0.28 C249.15 27.21, 246.23 55.56, 247.23 104.12 M248.05 0.75 C248.94 27.08, 249.19 53.08, 248.58 102.64 M248.06 102.07 C153.83 104.42, 59.72 103.6, -0.65 103.28 M247.8 102.35 C150.87 105.38, 53.36 105.5, 0.6 103.53 M-1.74 103.4 C-0.23 70.99, -1.46 40.54, -1.74 -1.92 M0.67 103.68 C0.47 81.57, -0.58 61.17, -0.97 0.74" stroke="#000000" stroke-width="1" fill="none"></path></g><g transform="translate(62 248) rotate(0 80.5 25)"><text x="0" y="18" font-family="Virgil, Segoe UI Emoji" font-size="20px" fill="#000000" text-anchor="start" style="white-space: pre;" direction="ltr">add new element</text><text x="0" y="43" font-family="Virgil, Segoe UI Emoji" font-size="20px" fill="#000000" text-anchor="start" style="white-space: pre;" direction="ltr">keep older ones</text></g><g stroke-linecap="round" transform="translate(698 736) rotate(0 72 47.5)"><path d="M95.54 2.47 C105.9 4.21, 116.2 10, 123.93 15.26 C131.66 20.51, 138.74 27.1, 141.93 34.01 C145.13 40.93, 145.39 49.32, 143.12 56.75 C140.84 64.18, 135.56 72.78, 128.3 78.59 C121.03 84.39, 109.87 88.78, 99.53 91.56 C89.18 94.35, 77.2 95.84, 66.2 95.28 C55.2 94.73, 42.96 92.19, 33.53 88.24 C24.1 84.28, 15.25 78.06, 9.62 71.56 C3.98 65.06, 0.01 56.69, -0.3 49.24 C-0.6 41.79, 2.73 33.56, 7.79 26.86 C12.86 20.16, 21.34 13.54, 30.09 9.03 C38.84 4.52, 48.16 0.55, 60.27 -0.18 C72.39 -0.9, 94.41 3.32, 102.77 4.67 C111.14 6.03, 110.81 7.33, 110.47 7.95 M56.6 2.36 C66.64 0.38, 79.22 0.27, 89.96 1.94 C100.7 3.6, 112.76 7.4, 121.04 12.35 C129.31 17.31, 135.81 24.64, 139.62 31.67 C143.43 38.7, 145.69 47.14, 143.91 54.54 C142.12 61.94, 135.81 69.94, 128.9 76.08 C121.98 82.22, 112.43 88.47, 102.43 91.38 C92.44 94.28, 79.69 94.13, 68.92 93.5 C58.15 92.87, 47.25 91.02, 37.81 87.6 C28.36 84.19, 18.51 78.73, 12.24 73.02 C5.97 67.31, 1.15 60.6, 0.19 53.34 C-0.76 46.08, 2.5 36.38, 6.52 29.45 C10.54 22.51, 16.15 16.51, 24.3 11.73 C32.45 6.95, 49.9 2.22, 55.43 0.78 C60.97 -0.65, 56.99 2.1, 57.51 3.1" stroke="#000000" stroke-width="1" fill="none"></path></g><g transform="translate(753 771) rotate(0 17 12.5)"><text x="17" y="18" font-family="Virgil, Segoe UI Emoji" font-size="20px" fill="#1864ab" text-anchor="middle" style="white-space: pre;" direction="ltr">end</text></g><g stroke-linecap="round"><g transform="translate(116 325) rotate(0 287.24851694947023 234.4939836521243)"><path d="M-1.04 -1.17 C9.2 68.83, -35.86 342.45, 60.54 420.22 C156.95 497.99, 491.22 457.76, 577.38 465.45 M0.62 0.83 C10.86 70.95, -35.89 343.74, 60.14 421.35 C156.17 498.96, 490.5 458.76, 576.82 466.48" stroke="#000000" stroke-width="1" fill="none"></path></g><g transform="translate(116 325) rotate(0 287.24851694947023 234.4939836521243)"><path d="M546.8 478.8 C553.82 475.53, 560.6 473.38, 577.39 465 M549.29 477.76 C554.12 474.95, 561.17 472.44, 576.95 466.46" stroke="#000000" stroke-width="1" fill="none"></path></g><g transform="translate(116 325) rotate(0 287.24851694947023 234.4939836521243)"><path d="M546.56 458.28 C553.68 459.69, 560.5 462.21, 577.39 465 M549.05 457.24 C554.08 458.9, 561.18 460.85, 576.95 466.46" stroke="#000000" stroke-width="1" fill="none"></path></g></g><g stroke-linecap="round"><g transform="translate(463 599) rotate(0 149.3209205891937 66.15652692165224)"><path d="M-0.67 -0.4 C42.83 5.56, 210.13 12.9, 260.12 35.16 C310.12 57.41, 292.76 116.48, 299.32 133.12 M1.17 -1.66 C45.13 4.48, 212.87 13.64, 262.37 36.25 C311.88 58.85, 292.02 117.85, 298.19 133.97" stroke="#000000" stroke-width="1" fill="none"></path></g><g transform="translate(463 599) rotate(0 149.3209205891937 66.15652692165224)"><path d="M285.98 104.82 C287.7 111.42, 290.22 117.84, 299.87 135.36 M287.48 106.35 C291.54 115.89, 295.4 126.28, 298.7 133.02" stroke="#000000" stroke-width="1" fill="none"></path></g><g transform="translate(463 599) rotate(0 149.3209205891937 66.15652692165224)"><path d="M306.48 103.88 C303.59 110.58, 301.51 117.21, 299.87 135.36 M307.98 105.41 C304.64 115.36, 301.11 126.09, 298.7 133.02" stroke="#000000" stroke-width="1" fill="none"></path></g></g><g stroke-linecap="round"><g transform="translate(1071 337) rotate(0 -108.97881921935198 221.98954194718914)"><path d="M0.08 0.94 C-2.07 66.32, 24.34 319.42, -13.1 392.89 C-50.54 466.36, -189.27 433.46, -224.56 441.77 M-1.34 0.39 C-3.59 65.83, 23.45 320.08, -13.84 393.84 C-51.13 467.61, -189.99 435.18, -225.09 442.96" stroke="#000000" stroke-width="1" fill="none"></path></g><g transform="translate(1071 337) rotate(0 -108.97881921935198 221.98954194718914)"><path d="M-195.35 433.31 C-206.69 436.32, -213.2 438.84, -223.94 442.73 M-196.01 432.83 C-206.96 436.57, -218.74 439.95, -225.24 443.74" stroke="#000000" stroke-width="1" fill="none"></path></g><g transform="translate(1071 337) rotate(0 -108.97881921935198 221.98954194718914)"><path d="M-195.31 453.84 C-206.76 451.04, -213.28 447.75, -223.94 442.73 M-195.98 453.35 C-207.09 449.38, -218.89 445.05, -225.24 443.74" stroke="#000000" stroke-width="1" fill="none"></path></g></g></svg>